<?xml version="1.0" encoding="UTF-8" standalone="no"?>
<!-- Created with Inkscape (http://www.inkscape.org/) -->

<svg
   width="512"
   height="512"
   viewBox="0 0 135.46666 135.46667"
   version="1.1"
   id="svg5"
   inkscape:version="1.2.2 (732a01da63, 2022-12-09)"
   sodipodi:docname="demo_logo.svg"
   inkscape:export-filename="demo_logo.png"
   inkscape:export-xdpi="96"
   inkscape:export-ydpi="96"
   xmlns:inkscape="http://www.inkscape.org/namespaces/inkscape"
   xmlns:sodipodi="http://sodipodi.sourceforge.net/DTD/sodipodi-0.dtd"
   xmlns="http://www.w3.org/2000/svg"
   xmlns:svg="http://www.w3.org/2000/svg">
  <sodipodi:namedview
     id="namedview7"
     pagecolor="#000000"
     bordercolor="#000000"
     borderopacity="0"
     inkscape:showpageshadow="0"
     inkscape:pageopacity="0"
     inkscape:pagecheckerboard="false"
     inkscape:deskcolor="#404040"
     inkscape:document-units="px"
     showgrid="false"
     inkscape:zoom="0.684102"
     inkscape:cx="100.86215"
     inkscape:cy="302.58646"
     inkscape:window-width="1366"
     inkscape:window-height="697"
     inkscape:window-x="-8"
     inkscape:window-y="-8"
     inkscape:window-maximized="1"
     inkscape:current-layer="layer1" />
  <defs
     id="defs2" />
  <g
     inkscape:label="Layer 1"
     inkscape:groupmode="layer"
     id="layer1">
    <rect
       style="display:inline;opacity:1;fill:#000000;fill-opacity:1;stroke:#000000;stroke-width:0.435027"
       id="rect288"
       width="135.03163"
       height="135.03163"
       x="0.21751364"
       y="0.21751364"
       inkscape:label="back"
       ry="25.222029"
       rx="25.192127" />
    <path
       id="path2810"
       style="fill:#ffffff;fill-opacity:1;stroke:#ffffff;stroke-width:0.19338"
       d="m 51.284724,17.229439 3.958415,3.965133 c 2.177114,2.181006 4.022979,3.965649 4.102076,3.965649 0.0791,0 1.924958,-1.784643 4.102074,-3.965649 l 3.958415,-3.965133 h -8.060489 z m -0.417544,0.13901 -4.031279,4.031278 -4.031279,4.031795 3.959447,3.966684 c 2.17777,2.181659 3.991729,3.966683 4.031279,3.966683 0.03955,0 0.07183,-3.5995 0.07183,-7.998479 z m 0.273883,0 v 8.06514 8.065658 l 4.032314,-4.032829 4.032826,-4.032829 -4.032826,-4.032312 z m 16.542144,0.133842 -4.011641,4.011124 -4.011642,4.011642 3.961514,3.964615 c 2.178738,2.180685 3.984077,3.965133 4.011641,3.965133 0.02757,0 0.05013,-3.589271 0.05013,-7.976257 z m 0.386538,0.0021 v 7.878589 c 0,4.333154 0.02257,7.878589 0.05013,7.878589 0.02756,0 1.811292,-1.763379 3.964098,-3.918106 l 3.91449,-3.917591 -3.964615,-3.960482 z m -25.550376,8.2026 -3.958415,3.965651 -3.958415,3.965649 h 7.858953 c 4.322463,0 7.85895,-0.03228 7.85895,-0.07183 0,-0.03955 -1.755222,-1.824159 -3.900538,-3.965649 z m 16.941602,0.0124 -3.961001,3.964617 -3.960481,3.964099 h 7.878071 c 4.333156,0 7.878591,-0.02257 7.878591,-0.05013 0,-0.02756 -1.762861,-1.811293 -3.91759,-3.964102 z m 16.823777,0 -3.960482,3.964617 -3.960998,3.964099 h 7.878588 c 4.333155,0 7.878591,-0.02257 7.878591,-0.05013 0,-0.02756 -1.762861,-1.811293 -3.917591,-3.964102 z m -24.939046,8.315772 3.960998,3.964099 c 2.17841,2.180357 4.005612,3.964098 4.060735,3.964098 0.05513,0 1.882841,-1.783741 4.061251,-3.964098 l 3.960482,-3.964099 h -8.021733 z m 16.824296,0 4.057634,4.060735 c 2.231636,2.233536 4.05888,4.060733 4.060733,4.060733 0.0019,0 1.829614,-1.827197 4.061251,-4.060733 l 4.057118,-4.060735 h -8.118369 z m 16.335438,0.288872 -4.031278,4.031795 -4.031795,4.031279 3.959963,3.966681 c 2.177769,2.181659 3.991731,3.966684 4.031279,3.966684 0.03955,0 0.07183,-3.598985 0.07183,-7.997963 z m -16.822229,0.0021 -4.011641,4.011642 -4.011642,4.011123 3.961514,3.965133 c 2.178738,2.180685 3.984077,3.964617 4.011641,3.964617 0.02757,0 0.05013,-3.589272 0.05013,-7.976259 z m 0.386538,0 v 8.024315 8.023802 l 4.01216,-4.01216 4.012158,-4.011642 -4.012158,-4.012158 z m 33.665135,0.0026 v 7.859469 c 0,4.322466 0.0323,7.858953 0.0718,7.858953 0.0395,0 1.82417,-1.755222 3.96565,-3.900538 l 3.89331,-3.900538 -3.96514,-3.958415 z m -25.577257,8.334375 -3.958412,3.965133 -3.958932,3.965649 h 7.859467 c 4.322463,0 7.858953,-0.03228 7.858953,-0.07183 0,-0.03955 -1.755222,-1.824162 -3.900538,-3.965649 z m 33.911627,0 -3.95893,3.965133 -3.95842,3.965649 h 7.85947 c 4.32247,0 7.85895,-0.03228 7.85895,-0.07183 0,-0.03955 -1.75522,-1.824162 -3.90053,-3.965649 z m -75.740597,8.204152 3.958415,3.965649 c 2.177113,2.181008 4.023495,3.965649 4.102592,3.965649 0.0791,0 1.924963,-1.784641 4.102076,-3.965649 l 3.958413,-3.965649 H 42.38966 Z m 16.956071,0 3.958415,3.965649 c 2.177114,2.181008 4.022979,3.965649 4.102076,3.965649 0.0791,0 1.924958,-1.784641 4.102074,-3.965649 l 3.958415,-3.965649 h -8.060489 z m 16.955555,0 3.958413,3.965649 c 2.177116,2.181008 4.023495,3.965649 4.102592,3.965649 0.0791,0 1.924963,-1.784641 4.102076,-3.965649 l 3.958416,-3.965649 h -8.060492 z m 33.634641,0 8.20105,8.204666 c 4.51054,4.512426 8.23278,8.204149 8.27133,8.204149 0.0385,0 0.0698,-3.691723 0.0698,-8.204149 v -8.204666 h -8.27081 z m -51.00774,0.143661 -4.102076,4.095356 -4.102077,4.095874 4.030247,4.036962 c 2.216759,2.22046 4.063109,4.036962 4.102593,4.036962 0.03948,0 0.07131,-3.659375 0.07131,-8.132318 z m -16.638778,0.139525 v 8.023799 8.024318 l 4.012157,-4.01216 4.011642,-4.012158 -4.011642,-4.012157 z m 67.296148,0.0021 -4.061251,4.057634 -4.060732,4.057634 4.011123,4.014224 c 2.206011,2.207884 4.03319,4.014226 4.06073,4.014226 0.0275,0 0.0501,-3.632324 0.0501,-8.07186 z m 0.19327,0 v 8.118369 8.118366 l 3.96462,-3.960481 c 2.18035,-2.17841 3.9641,-4.049583 3.9641,-4.157885 0,-0.108305 -1.78375,-1.978956 -3.9641,-4.157372 z M 51.141063,51.28484 v 7.858953 c 0,4.322463 0.03228,7.85895 0.07183,7.85895 0.03955,0 1.824159,-1.755219 3.965649,-3.900538 l 3.893301,-3.900535 -3.965649,-3.958415 z m 33.364373,0 -3.965651,3.958415 -3.965131,3.958415 3.893302,3.900535 c 2.14149,2.145319 3.926101,3.900538 3.965649,3.900538 0.03955,0 0.07183,-3.536487 0.07183,-7.85895 z m -50.857361,0.05891 -3.914489,3.914489 -3.915007,3.915005 3.864879,3.867983 c 2.125523,2.127512 3.886907,3.868497 3.914492,3.868497 0.02759,0 0.05013,-3.502369 0.05013,-7.782988 z m 33.841346,0.0021 -3.964101,3.960998 -3.964099,3.961 3.913974,3.91759 c 2.152806,2.15473 3.936536,3.91759 3.964098,3.91759 0.02757,0 0.05013,-3.545437 0.05013,-7.87859 z m 0.580324,0 v 7.87865 c 0,4.333153 0.02257,7.87859 0.05013,7.87859 0.02756,0 1.811292,-1.76286 3.964098,-3.91759 l 3.91449,-3.9178 -3.964615,-3.961 z m -42.44702,8.021523 c -0.0019,0 -1.829096,1.827715 -4.060734,4.061251 l -4.057633,4.060735 h 8.118367 8.118883 L 29.683977,63.428686 C 27.452338,61.19515 25.62463,59.367435 25.622725,59.367435 Z m 16.824297,0 c -0.0019,0 -1.829613,1.827715 -4.061251,4.061251 l -4.057118,4.060735 h 8.118369 8.118366 l -4.057634,-4.060735 c -2.231636,-2.233536 -4.05888,-4.061251 -4.060732,-4.061251 z m 16.920413,0.09818 -4.011641,4.01216 -4.012158,4.011642 h 8.023799 8.024315 l -4.012157,-4.011642 z m 33.841862,0 -4.012158,4.01216 -4.01216,4.011642 h 8.024318 8.023803 l -4.011646,-4.011642 z m 16.823783,0 -4.01165,4.01216 -4.01215,4.011642 h 8.0238 8.02431 l -4.01216,-4.011642 z m -33.748332,0.0956 -3.960482,3.964099 -3.960998,3.964101 h 7.878588 c 4.333155,0 7.878591,-0.02257 7.878591,-0.05013 0,-0.02756 -1.762861,-1.811292 -3.917591,-3.964098 z m -42.249616,8.219654 v 8.217586 8.217587 l 4.108275,-4.108793 4.108794,-4.108794 -4.108794,-4.108794 z m -16.530774,0.0956 3.960998,3.964099 c 2.178412,2.180357 4.005609,3.964614 4.060734,3.964614 0.05513,0 1.882838,-1.784257 4.06125,-3.964614 l 3.960482,-3.964099 H 25.52609 Z m 17.017565,0 3.960481,3.964099 c 2.17841,2.180357 3.962766,3.964614 3.964618,3.964614 0.0019,0 1.785686,-1.784257 3.964098,-3.964614 l 3.960998,-3.964099 h -7.925096 z m 16.823779,0 3.960998,3.964099 c 2.17841,2.180357 4.005612,3.964614 4.060735,3.964614 0.05513,0 1.882841,-1.784257 4.061251,-3.964614 l 3.960482,-3.964099 h -8.021733 z m 16.824296,0 3.960998,3.964099 c 2.178415,2.180357 4.005609,3.964614 4.060735,3.964614 0.05513,0 1.88232,-1.784257 4.060735,-3.964614 l 3.960997,-3.964099 h -8.021732 z m 17.017566,0 3.960482,3.964099 c 2.17841,2.180357 4.006125,3.964614 4.061251,3.964614 0.05512,0 1.882322,-1.784257 4.060735,-3.964614 l 3.960998,-3.964099 h -8.021733 z m 16.823776,0 3.961,3.964099 c 2.17841,2.180357 4.00561,3.964614 4.06074,3.964614 0.0551,0 1.88283,-1.784257 4.06125,-3.964614 l 3.96048,-3.964099 h -8.02173 z m -0.48679,0.100251 -4.061251,4.057118 -4.060732,4.057632 4.011123,4.014742 c 2.206011,2.207884 4.03319,4.014227 4.06073,4.014227 0.0275,0 0.0501,-3.632325 0.0501,-8.071861 z m 0.19327,0 v 8.071858 c 0,4.439536 0.0226,8.071861 0.0501,8.071861 0.0275,0 1.85524,-1.806343 4.06125,-4.014227 l 4.01061,-4.014742 -4.06074,-4.057632 z m -68.069745,0.19327 -3.964098,3.960998 -3.964617,3.960482 3.914489,3.91759 c 2.152809,2.154729 3.936539,3.918108 3.964101,3.918108 0.02757,0 0.05013,-3.545435 0.05013,-7.87859 z m 34.42167,0 v 7.878588 c 0,4.333155 0.02257,7.87859 0.05013,7.87859 0.02756,0 1.811292,-1.763379 3.964098,-3.918108 l 3.91449,-3.91759 -3.964615,-3.960482 z m 16.982942,0.06563 v 7.791773 7.791772 l 3.895887,-3.895886 3.895886,-3.895886 -3.895886,-3.895887 z m -67.54988,0.0016 v 7.997443 7.997444 h 7.930782 c 4.362013,0 7.9313,-0.0317 7.9313,-0.07028 0,-0.03858 -3.569287,-3.637378 -7.9313,-7.997447 z m 33.638256,0.0031 v 7.859467 c 0,4.322463 0.03228,7.858953 0.07183,7.858953 0.03955,0 1.824159,-1.755222 3.965649,-3.900538 l 3.893301,-3.900538 -3.965649,-3.958413 z m 33.364373,0 -3.965651,3.958931 -3.965131,3.958413 3.893302,3.900538 c 2.14149,2.145316 3.926101,3.900538 3.965649,3.900538 0.03955,0 0.07183,-3.53649 0.07183,-7.858953 z m -17.016015,0.120923 -3.914492,3.914489 -3.915005,3.915005 3.86488,3.867981 c 2.125517,2.127514 3.886901,3.868499 3.914489,3.868499 0.02759,0 0.05013,-3.502369 0.05013,-7.782988 z m 25.623758,7.939566 -3.958415,3.965649 -3.958416,3.965649 h 7.858953 c 4.322461,0 7.858949,-0.03228 7.858949,-0.07183 0,-0.03955 -1.755218,-1.824159 -3.900533,-3.965649 z m -33.767964,0.139525 -3.895886,3.895887 -3.895886,3.895886 h 7.791772 7.79177 l -3.895886,-3.895886 z m 16.956069,0 -3.895886,3.895887 -3.895887,3.895886 h 7.791773 7.791773 L 80.197171,80.33618 Z m -58.654816,8.338479 3.958415,3.965649 c 2.177114,2.181005 3.961757,3.965649 3.965649,3.965649 0.0039,0 1.788019,-1.784644 3.965133,-3.965649 l 3.958415,-3.965649 h -7.923548 z m 33.912142,0 3.821472,3.828706 c 2.101768,2.105798 3.885896,3.828706 3.965133,3.828706 0.07923,0 1.863879,-1.722908 3.965649,-3.828706 l 3.821473,-3.828706 h -7.787122 z m -0.417547,0.144177 v 7.858953 c 0,4.322461 0.03228,7.858949 0.07183,7.858949 0.03955,0 1.824159,-1.755221 3.965649,-3.900537 l 3.893301,-3.900535 -3.965649,-3.958415 z m 16.928682,0.06873 v 8.024314 8.023808 l 4.01216,-4.012166 4.012158,-4.011642 -4.012158,-4.012157 z m -0.580324,0.0026 -3.964101,3.960482 -3.964099,3.960998 3.913974,3.917592 c 2.152806,2.154727 3.936536,3.91759 3.964098,3.91759 0.02757,0 0.05013,-3.545435 0.05013,-7.87859 z m -33.851164,0.197406 -3.894852,3.894336 -3.894854,3.894852 3.823022,3.830256 c 2.102445,2.106475 3.854717,3.829742 3.894336,3.829742 0.03962,0 0.07235,-3.476055 0.07235,-7.724594 z m 25.729178,7.921995 -4.108275,4.108794 -4.108794,4.108797 h 8.217069 8.217585 l -4.108791,-4.108797 z m 16.92093,0.0956 c -0.0019,0 -1.829097,1.827197 -4.060733,4.060735 l -4.057634,4.061256 h 8.118367 8.118369 L 80.349616,97.270095 C 78.117979,95.036557 76.290217,93.20936 76.288365,93.20936 Z m -25.135933,8.315251 4.057634,4.06074 c 2.231639,2.23353 4.102291,4.06125 4.157369,4.06125 0.05508,0 1.926249,-1.82772 4.157885,-4.06125 l 4.057634,-4.06074 h -8.215519 z m 17.017566,0 4.057634,4.06074 c 2.231636,2.23353 4.05888,4.06125 4.060733,4.06125 0.0019,0 1.829614,-1.82772 4.061251,-4.06125 l 4.057118,-4.06074 h -8.118369 z m 17.02635,0.21033 3.958416,3.96565 c 2.177116,2.181 3.961759,3.96513 3.965649,3.96513 0.0039,0 1.788019,-1.78413 3.965133,-3.96513 l 3.958414,-3.96565 h -7.923547 z m -17.126603,0.0811 v 8.0238 8.02431 l 4.01216,-4.01215 4.012158,-4.01216 -4.012158,-4.01216 z m 16.709059,0.0579 v 8.06514 8.06565 l 4.032829,-4.03282 4.032827,-4.03283 -4.032827,-4.03231 z m -0.273368,0.005 -3.965651,3.95842 -3.965131,3.95842 3.893302,3.90053 c 2.14149,2.14532 3.926101,3.90054 3.965649,3.90054 0.03955,0 0.07183,-3.53649 0.07183,-7.85895 z m -17.016015,0.13282 -3.964101,3.96099 -3.964099,3.96048 3.913974,3.91811 c 2.152806,2.15473 3.936536,3.91759 3.964098,3.91759 0.02757,0 0.05013,-3.54544 0.05013,-7.87859 z m 8.811863,8.06669 -4.032827,4.03283 -4.032829,4.03282 h 8.065656 8.06514 l -4.032826,-4.03282 z" />
  </g>
</svg>
